<svg width="2467" height="956" viewBox="0 0 2467 956" fill="none" xmlns="http://www.w3.org/2000/svg">
<g clip-path="url(#clip0_21_117)">
<path d="M372 813.96H232.2V253.34H21.5498V113.07H582.17V253.34H372V813.96Z" fill="url(#paint0_linear_21_117)"/>
<path d="M2437.17 742.12C2404.58 770.15 2368.09 791.65 2327.69 806.64C2287.29 821.63 2245.42 829.12 2202.08 829.12C2168.83 829.12 2136.81 824.79 2106.03 816.17C2075.23 807.55 2046.39 795.33 2019.51 779.51C1992.63 763.71 1968.12 744.73 1945.96 722.57C1923.8 700.41 1904.82 675.88 1889.01 649.01C1873.2 622.14 1860.98 593.29 1852.35 562.49C1843.71 531.71 1839.4 499.69 1839.4 466.44C1839.4 433.19 1843.71 401.11 1852.35 370.16C1860.97 339.21 1873.19 310.28 1889.01 283.39C1904.82 256.51 1923.81 231.98 1945.96 209.83C1968.11 187.68 1992.63 168.71 2019.51 152.89C2046.39 137.09 2075.23 124.87 2106.03 116.23C2136.81 107.61 2168.83 103.28 2202.08 103.28C2245.42 103.28 2287.28 110.7 2327.69 125.53C2368.1 140.36 2404.58 161.94 2437.17 190.28L2362.89 312.47C2342.36 290.31 2318.08 273.3 2290.06 261.41C2262.03 249.52 2232.7 243.57 2202.08 243.57C2171.46 243.57 2142.11 249.45 2115.08 261.16C2088.03 272.89 2064.41 288.78 2044.2 308.82C2024 328.87 2008.03 352.49 1996.31 379.7C1984.58 406.92 1978.72 435.82 1978.72 466.45C1978.72 497.08 1984.58 525.84 1996.31 552.72C2008.03 579.61 2024 603.16 2044.2 623.36C2064.4 643.56 2088.03 659.53 2115.08 671.25C2142.11 682.98 2171.11 688.84 2202.08 688.84C2233.05 688.84 2262.03 682.9 2290.06 671C2318.08 659.11 2342.36 642.08 2362.89 619.92L2437.17 742.12Z" fill="url(#paint1_linear_21_117)"/>
<path d="M2359.84 956V935.93L2332.94 891.91L2295.03 849.11L2262.01 796.53L2220.43 765.96L2125.05 697.48L2062.69 671.8L2030.9 630.22L1857.26 561.74L1848.7 554.4L1744.76 529.94L1738.65 521.38L1719.08 514.04L1569.9 489.58L1546.67 482.24L1524.66 477.35L1473.3 460.23L1442.73 450.45L1431.72 456.56H1420.71L1415.82 461.45L1380.36 463.9L1371.8 457.79L1353.46 459.01L1305.77 450.45L1240.96 432.11H1222.62L1201.16 427.22L1199.01 428.98L1196.94 429.67L1182.43 424.78L1178.6 427.23L1156.59 459.02L1045.31 481.03L1036.75 504.26H1013.32L974.39 536.05H957.12L940.15 555.62L665.01 540.95L603.87 577.63L562.29 603.31L502.37 652.22L454.68 699.91L415.55 752.49L391.09 763.5L347.07 714.59L285.93 740.27L240.69 774.51C240.69 774.51 205.23 811.19 205.84 811.19C206.45 811.19 134.92 849.1 134.92 849.1L20.5 956" fill="url(#paint2_linear_21_117)"/>
<path d="M1552.2 613.57C1552.2 642.57 1546.73 669.87 1535.82 695.45C1524.9 721.03 1509.91 743.34 1490.85 762.4C1471.79 781.46 1449.46 796.46 1423.88 807.37C1398.3 818.28 1371.02 823.75 1342.02 823.75C1315.94 823.75 1290.93 819.19 1266.99 810.06C1243.04 800.94 1221.44 787.58 1202.22 769.98C1183 787.57 1161.33 800.93 1137.22 810.06C1113.1 819.18 1088.02 823.75 1061.95 823.75C1032.95 823.75 1005.65 818.28 980.07 807.37C954.48 796.46 932.159 781.46 913.099 762.4C894.039 743.34 879.04 721.02 868.13 695.45C857.22 669.88 851.77 642.57 851.77 613.57V113.07H992.039V613.57C992.039 623.35 993.819 632.55 997.419 641.18C1001.01 649.82 1005.98 657.32 1012.33 663.66C1018.67 670.02 1026.1 674.99 1034.56 678.57C1043.03 682.16 1052.17 683.95 1061.95 683.95C1071.73 683.95 1080.84 682.17 1089.31 678.57C1097.78 674.99 1105.2 670.02 1111.56 663.66C1117.92 657.3 1122.87 649.82 1126.47 641.18C1130.05 632.56 1131.85 623.35 1131.85 613.57V113.07H1272.12V613.57C1272.12 623.35 1273.9 632.55 1277.5 641.18C1281.09 649.82 1286.06 657.32 1292.42 663.66C1298.76 670.02 1306.19 674.99 1314.65 678.57C1323.12 682.16 1332.24 683.95 1342.03 683.95C1351.82 683.95 1360.92 682.17 1369.39 678.57C1377.86 674.99 1385.28 670.02 1391.64 663.66C1398 657.3 1403.03 649.82 1406.78 641.18C1410.53 632.56 1412.4 623.35 1412.4 613.57V113.07H1552.2V613.57Z" fill="url(#paint3_linear_21_117)"/>
<path d="M2361.84 956.5V935.93L2334.94 891.91L2297.03 849.11L2264.01 796.53L2222.43 765.96L2127.05 697.48L2064.69 671.8L2032.9 630.22L1859.26 561.74L1850.7 554.4L1746.76 529.94L1740.65 521.38L1721.08 514.04L1571.9 489.58L1548.67 482.24L1526.66 477.35L1475.3 460.23L1444.73 450.45L1433.72 456.56H1422.71L1417.82 461.45L1382.36 463.9L1373.8 457.79L1355.46 459.01L1307.77 450.45L1242.96 432.11H1224.62L1203.16 427.22L1201.01 428.98L1198.94 429.67L1184.43 424.78L1180.6 427.23L1158.59 459.02L1047.31 481.03L1038.75 504.26H1015.32L976.39 536.05H959.12L942.15 555.62L667.01 540.95L605.87 577.63L564.29 603.31L504.37 652.22L456.68 699.91L417.55 752.49L393.09 763.5L349.07 714.59L287.93 740.27L242.69 774.51C242.69 774.51 207.23 811.19 207.84 811.19C208.45 811.19 136.92 849.1 136.92 849.1L23.5 963.5" stroke="url(#paint4_linear_21_117)" stroke-width="15" stroke-miterlimit="10"/>
</g>
<defs>
<linearGradient id="paint0_linear_21_117" x1="564.82" y1="621.14" x2="39.1498" y2="95.4701" gradientUnits="userSpaceOnUse">
<stop stop-color="#3400C0"/>
<stop offset="0.03" stop-color="#4714C5"/>
<stop offset="0.12" stop-color="#7240D2"/>
<stop offset="0.21" stop-color="#9768DD"/>
<stop offset="0.3" stop-color="#B789E6"/>
<stop offset="0.4" stop-color="#D1A4EE"/>
<stop offset="0.51" stop-color="#E5B9F4"/>
<stop offset="0.63" stop-color="#F4C8F8"/>
<stop offset="0.78" stop-color="#FCD1FB"/>
<stop offset="1" stop-color="#FFD4FC"/>
</linearGradient>
<linearGradient id="paint1_linear_21_117" x1="2457.21" y1="722.07" x2="1945.47" y2="210.33" gradientUnits="userSpaceOnUse">
<stop stop-color="#3400C0"/>
<stop offset="0.03" stop-color="#4714C5"/>
<stop offset="0.12" stop-color="#7240D2"/>
<stop offset="0.21" stop-color="#9768DD"/>
<stop offset="0.3" stop-color="#B789E6"/>
<stop offset="0.4" stop-color="#D1A4EE"/>
<stop offset="0.51" stop-color="#E5B9F4"/>
<stop offset="0.63" stop-color="#F4C8F8"/>
<stop offset="0.78" stop-color="#FCD1FB"/>
<stop offset="1" stop-color="#FFD4FC"/>
</linearGradient>
<linearGradient id="paint2_linear_21_117" x1="1225" y1="536.81" x2="1225" y2="1021.75" gradientUnits="userSpaceOnUse">
<stop offset="0.28" stop-color="#0B0014"/>
<stop offset="0.73" stop-color="#0B0014" stop-opacity="0.91"/>
<stop offset="0.89" stop-color="#0B0014" stop-opacity="0.57"/>
<stop offset="1" stop-color="#0B0014" stop-opacity="0"/>
</linearGradient>
<linearGradient id="paint3_linear_21_117" x1="1524.09" y1="729.16" x2="879.889" y2="84.9701" gradientUnits="userSpaceOnUse">
<stop stop-color="#3400C0"/>
<stop offset="0.03" stop-color="#4714C5"/>
<stop offset="0.12" stop-color="#7240D2"/>
<stop offset="0.21" stop-color="#9768DD"/>
<stop offset="0.3" stop-color="#B789E6"/>
<stop offset="0.4" stop-color="#D1A4EE"/>
<stop offset="0.51" stop-color="#E5B9F4"/>
<stop offset="0.63" stop-color="#F4C8F8"/>
<stop offset="0.78" stop-color="#FCD1FB"/>
<stop offset="1" stop-color="#FFD4FC"/>
</linearGradient>
<linearGradient id="paint4_linear_21_117" x1="-14.72" y1="686.24" x2="2466.4" y2="686.24" gradientUnits="userSpaceOnUse">
<stop/>
<stop offset="0.49" stop-color="#FFE82A"/>
<stop offset="0.66" stop-color="#C6965B"/>
<stop offset="0.82" stop-color="#965085"/>
<stop offset="0.94" stop-color="#78259F"/>
<stop offset="1" stop-color="#6D15AA"/>
</linearGradient>
<clipPath id="clip0_21_117">
<rect width="2467" height="956" fill="white"/>
</clipPath>
</defs>
</svg>
